<svg width="200" height="200" viewBox="0 0 200 200" fill="none" xmlns="http://www.w3.org/2000/svg">
<rect width="200" height="200" fill="#2BA1FF"/>
<path fill-rule="evenodd" clip-rule="evenodd" d="M50.4861 50.3076L50.4846 50.3075L50.6761 47.553L49.4622 47.44C48.6598 47.7199 48.004 48.3489 47.6785 49.1618L47.5892 50.1101L50.4846 50.3075L50.4846 50.3076L47.5892 50.1108L46.8547 57.9094L59.5312 59.0892L60.5313 48.4702L50.6769 47.5531L50.4861 50.3076ZM154.936 79.7718L74.7454 77.2748L72.3199 154.512L149.838 156.926L149.721 154.069L149.839 156.926L150.69 156.953C151.564 156.677 152.257 155.992 152.57 155.122L152.607 153.952L149.721 154.069L149.721 154.068L152.607 153.951L154.936 79.7718ZM152.511 157.009L152.066 156.995L152.512 156.977L152.511 157.009Z" fill="#B4B3B4"/>
<path fill-rule="evenodd" clip-rule="evenodd" d="M155.494 43.6681L155.801 43.6353L155.783 43.8053V43.6681H155.494ZM153.804 43.8485L130.203 46.3676L130.196 46.309L91.3164 50.2156L93.3859 70.6381L137.021 66.2537L135.696 77.5989L151.756 79.4523L153.491 64.5988L153.6 64.5879L155.597 45.577C155.291 44.7783 154.633 44.1438 153.804 43.8485ZM141.211 149.032L43.7553 159.052L43.6185 156.361L43.6172 156.361L43.6172 156.361L40.7949 156.502L39.9754 57.711L42.7824 57.5506L42.7823 57.5492L42.7824 57.5492L42.6185 54.7366L84.873 51.4658L85.3481 124.748L138.235 119.47L141.211 149.032ZM42.6178 54.7367L42.7823 57.5492L39.9754 57.7102L39.9646 56.4098C40.2359 55.7202 40.7492 55.1545 41.4023 54.8307L42.6178 54.7367ZM43.6172 156.361L43.7545 159.052L42.5093 159.18C41.7341 158.886 41.1112 158.291 40.8034 157.537L40.7949 156.502L43.6172 156.361Z" fill="#DCDCDC"/>
<path fill-rule="evenodd" clip-rule="evenodd" d="M56.9129 46.3488L56.9154 46.3493L57.4157 43.4577L80.8531 45.6262L80.8452 45.6669L158.615 52.7374L158.411 55.7363L158.411 55.7363L158.411 55.7377L161.164 55.9216L154.637 99.2881L147.161 147.462L144.227 147.305L144.227 147.306L144.226 147.305L144.066 150.244L37.5618 143.64L37.9482 140.877L37.9479 140.877L37.9482 140.875L35.1655 140.492L54.0837 45.8675L56.9128 46.3493L56.9129 46.3488ZM35.1652 140.493L37.9479 140.877L37.5607 143.64L36.5717 143.579C35.737 143.167 35.1391 142.4 34.9614 141.513L35.1652 140.493ZM144.227 147.306L147.161 147.462L146.992 148.553C146.591 149.46 145.77 150.122 144.799 150.289L144.067 150.244L144.227 147.306ZM158.411 55.7363L158.615 52.7375L159.009 52.7733C160.133 52.9914 161.018 53.8014 161.328 54.8318L161.164 55.9208L158.411 55.7363ZM57.4141 43.4576L56.9129 46.3488L54.0839 45.8662L54.2892 44.8395C54.7299 44.0605 55.4882 43.5145 56.3488 43.359L57.4141 43.4576Z" fill="white"/>
<g filter="url(#filter0_f_23_1757)">
<path fill-rule="evenodd" clip-rule="evenodd" d="M111.914 83.7891C111.914 83.7072 111.917 83.6259 111.923 83.5451C111.922 83.2686 111.913 82.9772 111.896 82.6765C111.839 81.6634 111.702 80.7657 111.533 80.1901C110.444 75.695 104.689 72.2656 97.7539 72.2656C90.0413 72.2656 83.7891 76.5067 83.7891 81.7383C83.7891 85.4675 86.966 88.6934 91.5841 90.2386C93.9411 91.3772 98.2937 92.8263 103.356 94.083C105.338 94.5752 107.239 94.9904 108.974 95.3192L109.063 95.3712C109.878 95.5548 110.766 95.8048 111.683 96.1173C113.871 96.8633 115.709 97.7885 116.707 98.5828C117.703 99.1645 118.67 99.9663 119.528 100.962C119.932 101.341 120.354 101.804 120.768 102.329L120.836 102.404C122.372 103.88 123.879 106.241 124.961 109.085C125.88 111.503 126.338 113.864 126.353 115.821L126.367 115.82L126.456 117.009L126.447 117.009C126.524 117.615 126.562 118.228 126.562 118.848C126.562 130.336 113.184 139.648 96.6797 139.648C80.1759 139.648 66.7969 130.336 66.7969 118.848C66.7969 117.116 67.101 115.433 67.6741 113.824L67.6785 113.83C68.2349 111.854 71.0388 110.352 74.4141 110.352C78.1894 110.352 81.25 112.232 81.25 114.551C81.25 114.918 81.1732 115.275 81.0289 115.614C80.9172 116.128 80.8594 116.653 80.8594 117.188C80.8594 123.12 87.9861 127.93 96.7773 127.93C105.569 127.93 112.695 123.12 112.695 117.188C112.695 112.385 108.025 108.319 101.583 106.944L101.568 106.942L94.4848 105.16L94.484 105.163L90.4297 104.248L90.433 104.233C78.7084 101.568 70.1172 92.8994 70.1172 82.6172C70.1172 70.2124 82.6217 60.1562 98.0469 60.1562C113.472 60.1562 125.977 70.2124 125.977 82.6172C125.977 82.8944 125.97 83.1705 125.958 83.4452C125.97 83.5588 125.977 83.6734 125.977 83.7891C125.977 86.3779 122.829 88.4766 118.945 88.4766C115.062 88.4766 111.914 86.3779 111.914 83.7891Z" fill="#D2D2D2"/>
</g>
<path fill-rule="evenodd" clip-rule="evenodd" d="M113.086 80.6641C113.086 80.5822 113.089 80.5009 113.095 80.4201C113.094 80.1436 113.085 79.8522 113.068 79.5515C113.011 78.5384 112.873 77.6407 112.705 77.0651C111.616 72.57 105.861 69.1406 98.9258 69.1406C91.2132 69.1406 84.9609 73.3817 84.9609 78.6133C84.9609 82.3425 88.1378 85.5684 92.756 87.1136C95.113 88.2522 99.4656 89.7013 104.527 90.958C106.51 91.4502 108.41 91.8654 110.146 92.1942L110.235 92.2462C111.05 92.4298 111.938 92.6798 112.855 92.9923C115.043 93.7383 116.881 94.6635 117.879 95.4578C118.875 96.0395 119.842 96.8413 120.699 97.8371C121.104 98.2162 121.526 98.6786 121.94 99.2037L122.008 99.2789C123.544 100.755 125.051 103.116 126.133 105.96C127.052 108.378 127.51 110.739 127.524 112.696L127.539 112.695L127.628 113.884L127.619 113.884C127.695 114.49 127.734 115.103 127.734 115.723C127.734 127.211 114.355 136.523 97.8516 136.523C81.3477 136.523 67.9688 127.211 67.9688 115.723C67.9688 113.991 68.2729 112.308 68.846 110.699L68.8503 110.705C69.4067 108.729 72.2107 107.227 75.5859 107.227C79.3613 107.227 82.4219 109.107 82.4219 111.426C82.4219 111.793 82.3451 112.15 82.2008 112.489C82.0891 113.003 82.0312 113.528 82.0312 114.063C82.0312 119.995 89.158 124.805 97.9492 124.805C106.74 124.805 113.867 119.995 113.867 114.063C113.867 109.26 109.197 105.194 102.755 103.819L102.74 103.817L95.6566 102.035L95.6558 102.038L91.6016 101.123L91.6049 101.108C79.8803 98.4428 71.2891 89.7744 71.2891 79.4922C71.2891 67.0874 83.7936 57.0312 99.2188 57.0312C114.644 57.0312 127.148 67.0874 127.148 79.4922C127.148 79.7694 127.142 80.0455 127.13 80.3202C127.142 80.4338 127.148 80.5484 127.148 80.6641C127.148 83.2529 124 85.3516 120.117 85.3516C116.234 85.3516 113.086 83.2529 113.086 80.6641Z" fill="black"/>
<path fill-rule="evenodd" clip-rule="evenodd" d="M64.4964 33.4431C58.1965 32.9867 52.7695 36.0753 52.131 40.3976L52.127 40.3973L52.1214 40.4652C52.1078 40.5654 52.0968 40.6663 52.0884 40.7677C52.0799 40.8694 52.0742 40.9708 52.0711 41.0719L50.0852 65.0289C50.0561 65.1975 50.0342 65.368 50.0199 65.5404C49.6455 70.055 54.5936 74.0953 61.0719 74.5647C67.5472 75.0338 73.1003 71.7578 73.4794 67.2464H73.5011L74.5279 54.8596C74.531 54.8427 74.5336 54.8257 74.5357 54.8085C74.5415 54.7632 74.544 54.718 74.5434 54.6729L74.5446 54.6581L74.5431 54.658C74.5185 53.7706 73.3 52.942 71.7102 52.7667C70.0307 52.5815 68.5727 53.1954 68.4537 54.1378C68.4466 54.1944 68.4444 54.2508 68.447 54.307L68.295 55.9451L68.2902 55.945L67.4211 65.3104L67.3896 65.3099C67.1725 67.5857 64.432 69.2027 61.2658 68.9222C58.0979 68.6416 55.7035 66.5676 55.9178 64.2898C55.9249 64.214 55.9348 64.1389 55.9475 64.0646L56.7808 55.0843C56.783 55.0311 56.7866 54.9778 56.7916 54.9244C56.7964 54.8736 56.8025 54.8231 56.8097 54.773L57.1043 51.5992L57.109 51.5996L57.9782 42.2338L57.9957 42.2354C58.3269 40.0549 61.009 38.5327 64.0985 38.8108C67.1879 39.0889 69.545 41.0645 69.4693 43.2678L69.4714 43.268L69.4677 43.3084C69.4655 43.3532 69.4624 43.3982 69.4582 43.4432C69.454 43.4881 69.4489 43.5327 69.4427 43.5771L69.4126 43.902L75.3914 44.4434L75.586 42.0959L75.5673 42.0945C75.6483 37.7324 70.7958 33.8996 64.4964 33.4431Z" fill="#FCD10D"/>
<path d="M52.131 40.3976L52.0587 41.395L52.9846 41.4621L53.1203 40.5438L52.131 40.3976ZM64.4964 33.4431L64.4241 34.4405L64.4241 34.4405L64.4964 33.4431ZM52.127 40.3973L52.1993 39.3999L51.2122 39.3284L51.1305 40.3147L52.127 40.3973ZM52.1214 40.4652L53.1123 40.5998L53.1158 40.5739L53.118 40.5479L52.1214 40.4652ZM52.0884 40.7677L51.0918 40.685L52.0884 40.7677ZM52.0711 41.0719L53.0677 41.1545L53.0699 41.1285L53.0707 41.1023L52.0711 41.0719ZM50.0852 65.0289L51.0706 65.1993L51.0782 65.1556L51.0818 65.1115L50.0852 65.0289ZM50.0199 65.5404L49.0234 65.4577L49.0234 65.4577L50.0199 65.5404ZM61.0719 74.5647L61.1441 73.5673L61.1441 73.5673L61.0719 74.5647ZM73.4794 67.2464V66.2464H72.5599L72.4829 67.1627L73.4794 67.2464ZM73.5011 67.2464V68.2464H74.4217L74.4977 67.329L73.5011 67.2464ZM74.5279 54.8596L73.5437 54.6827L73.5353 54.7295L73.5314 54.777L74.5279 54.8596ZM74.5357 54.8085L73.5436 54.6833L73.5436 54.6833L74.5357 54.8085ZM74.5434 54.6729L73.5468 54.5903L73.5429 54.6378L73.5435 54.6855L74.5434 54.6729ZM74.5446 54.6581L75.5412 54.7407L75.6232 53.7513L74.6344 53.6622L74.5446 54.6581ZM74.5431 54.658L73.5435 54.6857L73.5681 55.5742L74.4534 55.654L74.5431 54.658ZM71.7102 52.7667L71.6006 53.7607L71.6006 53.7607L71.7102 52.7667ZM68.4537 54.1378L67.4616 54.0126L67.4616 54.0126L68.4537 54.1378ZM68.447 54.307L69.4427 54.3994L69.4492 54.3301L69.4459 54.2605L68.447 54.307ZM68.295 55.9451L68.2796 56.945L69.2052 56.9592L69.2907 56.0375L68.295 55.9451ZM68.2902 55.945L68.3056 54.9451L67.38 54.9308L67.2945 55.8526L68.2902 55.945ZM67.4211 65.3104L67.4057 66.3103L68.3313 66.3245L68.4168 65.4028L67.4211 65.3104ZM67.3896 65.3099L67.4049 64.3101L66.4817 64.2959L66.3941 65.215L67.3896 65.3099ZM61.2658 68.9222L61.3541 67.9261L61.3541 67.9261L61.2658 68.9222ZM55.9178 64.2898L56.9134 64.3835L56.9134 64.3835L55.9178 64.2898ZM55.9475 64.0646L56.9333 64.2325L56.9397 64.1949L56.9432 64.157L55.9475 64.0646ZM56.7808 55.0843L57.7766 55.1767L57.7789 55.151L57.78 55.1252L56.7808 55.0843ZM56.7916 54.9244L57.7872 55.0181L57.7872 55.0181L56.7916 54.9244ZM56.8097 54.773L57.7994 54.9165L57.8031 54.891L57.8054 54.8654L56.8097 54.773ZM57.1043 51.5992L57.1936 50.6032L56.2006 50.5141L56.1085 51.5068L57.1043 51.5992ZM57.109 51.5996L57.0197 52.5956L58.0126 52.6847L58.1048 51.692L57.109 51.5996ZM57.9782 42.2338L58.0678 41.2379L57.0746 41.1485L56.9825 42.1414L57.9782 42.2338ZM57.9957 42.2354L57.9061 43.2314L58.8431 43.3157L58.9844 42.3856L57.9957 42.2354ZM64.0985 38.8108L64.1882 37.8148L64.1882 37.8148L64.0985 38.8108ZM69.4693 43.2678L68.4699 43.2335L68.4375 44.1792L69.38 44.2638L69.4693 43.2678ZM69.4714 43.268L70.4671 43.3604L70.5598 42.3616L69.5608 42.272L69.4714 43.268ZM69.4677 43.3084L68.472 43.216L68.4699 43.2383L68.4688 43.2606L69.4677 43.3084ZM69.4582 43.4432L70.4539 43.5357L70.4539 43.5357L69.4582 43.4432ZM69.4427 43.5771L68.4521 43.4403L68.4491 43.4624L68.447 43.4847L69.4427 43.5771ZM69.4126 43.902L68.4169 43.8096L68.3243 44.8075L69.3224 44.8979L69.4126 43.902ZM75.3914 44.4434L75.3012 45.4393L76.3047 45.5302L76.388 44.526L75.3914 44.4434ZM75.586 42.0959L76.5825 42.1785L76.666 41.1715L75.6582 41.0985L75.586 42.0959ZM75.5673 42.0945L74.5674 42.076L74.5498 43.0235L75.495 43.0919L75.5673 42.0945ZM53.1203 40.5438C53.3817 38.7739 54.6412 37.1513 56.6822 35.9992C58.7169 34.8507 61.4488 34.225 64.4241 34.4405L64.5686 32.4458C61.244 32.2049 58.1125 32.8952 55.6991 34.2575C53.292 35.6162 51.5188 37.6991 51.1417 40.2515L53.1203 40.5438ZM52.0548 41.3947L52.0587 41.395L52.2032 39.4002L52.1993 39.3999L52.0548 41.3947ZM53.118 40.5479L53.1236 40.4799L51.1305 40.3147L51.1248 40.3826L53.118 40.5479ZM53.0849 40.8504C53.0919 40.7663 53.1011 40.6827 53.1123 40.5998L51.1305 40.3307C51.1146 40.4481 51.1016 40.5662 51.0918 40.685L53.0849 40.8504ZM53.0707 41.1023C53.0732 41.0186 53.0779 40.9346 53.0849 40.8504L51.0918 40.685C51.0819 40.8041 51.0752 40.9229 51.0716 41.0415L53.0707 41.1023ZM51.0818 65.1115L53.0677 41.1545L51.0745 40.9893L49.0887 64.9462L51.0818 65.1115ZM51.0165 65.623C51.0284 65.4802 51.0465 65.3389 51.0706 65.1993L49.0999 64.8584C49.0657 65.056 49.0401 65.2558 49.0234 65.4577L51.0165 65.623ZM61.1441 73.5673C58.0836 73.3455 55.4298 72.2819 53.6086 70.7949C51.7852 69.306 50.8639 67.4625 51.0165 65.623L49.0234 65.4577C48.8015 68.1329 50.1671 70.5668 52.3437 72.3441C54.5225 74.1232 57.5819 75.3144 60.9996 75.562L61.1441 73.5673ZM72.4829 67.1627C72.3281 69.0044 71.1086 70.6997 69.0536 71.9119C67.0033 73.1213 64.203 73.7889 61.1441 73.5673L60.9996 75.562C64.4161 75.8096 67.6299 75.0737 70.0697 73.6345C72.5049 72.1981 74.2515 69.9998 74.4759 67.3301L72.4829 67.1627ZM73.5011 66.2464H73.4794V68.2464H73.5011V66.2464ZM73.5314 54.777L72.5046 67.1638L74.4977 67.329L75.5245 54.9422L73.5314 54.777ZM73.5436 54.6833L73.5437 54.6827L75.5122 55.0364C75.5183 55.0025 75.5235 54.9683 75.5279 54.9338L73.5436 54.6833ZM73.5435 54.6855C73.5435 54.6848 73.5435 54.684 73.5436 54.6833L75.5279 54.9338C75.5394 54.8425 75.5445 54.7512 75.5433 54.6603L73.5435 54.6855ZM73.548 54.5756L73.5468 54.5903L75.54 54.7555L75.5412 54.7407L73.548 54.5756ZM74.4534 55.654L74.4549 55.6541L74.6344 53.6622L74.6329 53.662L74.4534 55.654ZM71.6006 53.7607C72.263 53.8337 72.8051 54.0398 73.1562 54.2756C73.5356 54.5303 73.544 54.7045 73.5435 54.6857L75.5427 54.6303C75.5176 53.724 74.9045 53.0403 74.271 52.6151C73.6093 52.1708 72.7472 51.875 71.8198 51.7727L71.6006 53.7607ZM69.4458 54.2631C69.4405 54.305 69.444 54.1366 69.8848 53.951C70.2908 53.7801 70.8994 53.6833 71.6006 53.7607L71.8198 51.7727C70.8415 51.6648 69.8813 51.7824 69.1087 52.1077C68.3709 52.4184 67.5859 53.0282 67.4616 54.0126L69.4458 54.2631ZM69.4459 54.2605C69.446 54.2612 69.4459 54.2622 69.4458 54.2631L67.4616 54.0126C67.4472 54.1265 67.4428 54.2404 67.4481 54.3534L69.4459 54.2605ZM69.2907 56.0375L69.4427 54.3994L67.4513 54.2146L67.2993 55.8527L69.2907 56.0375ZM68.2747 56.9449L68.2796 56.945L68.3104 54.9452L68.3056 54.9451L68.2747 56.9449ZM68.4168 65.4028L69.2859 56.0374L67.2945 55.8526L66.4254 65.218L68.4168 65.4028ZM67.3742 66.3098L67.4057 66.3103L67.4364 64.3106L67.4049 64.3101L67.3742 66.3098ZM61.1776 69.9183C62.9459 70.0749 64.6351 69.7068 65.9417 68.936C67.2462 68.1664 68.2383 66.9433 68.385 65.4049L66.3941 65.215C66.3238 65.9523 65.8372 66.6756 64.9255 67.2134C64.0161 67.7499 62.752 68.0499 61.3541 67.9261L61.1776 69.9183ZM54.9221 64.1961C54.7771 65.7377 55.5256 67.1206 56.6687 68.1108C57.8129 69.1018 59.4084 69.7616 61.1776 69.9183L61.3541 67.9261C59.9553 67.8022 58.7697 67.2846 57.9782 66.599C57.1857 65.9126 56.8441 65.1197 56.9134 64.3835L54.9221 64.1961ZM54.9617 63.8967C54.9448 63.9955 54.9316 64.0954 54.9221 64.1961L56.9134 64.3835C56.9181 64.3325 56.9248 64.2822 56.9333 64.2325L54.9617 63.8967ZM55.7851 54.9919L54.9518 63.9722L56.9432 64.157L57.7766 55.1767L55.7851 54.9919ZM55.796 54.8308C55.7894 54.9017 55.7846 54.9726 55.7817 55.0433L57.78 55.1252C57.7815 55.0897 57.7839 55.054 57.7872 55.0181L55.796 54.8308ZM55.8201 54.6294C55.8104 54.6961 55.8024 54.7633 55.796 54.8308L57.7872 55.0181C57.7904 54.984 57.7945 54.9501 57.7994 54.9165L55.8201 54.6294ZM56.1085 51.5068L55.814 54.6806L57.8054 54.8654L58.1 51.6916L56.1085 51.5068ZM57.1984 50.6036L57.1936 50.6032L57.0149 52.5952L57.0197 52.5956L57.1984 50.6036ZM56.9825 42.1414L56.1133 51.5072L58.1048 51.692L58.9739 42.3262L56.9825 42.1414ZM58.0853 41.2394L58.0678 41.2379L57.8886 43.2298L57.9061 43.2314L58.0853 41.2394ZM64.1882 37.8148C62.463 37.6595 60.8142 38.0021 59.5221 38.7298C58.2337 39.4553 57.2308 40.6122 57.0071 42.0852L58.9844 42.3856C59.0918 41.6781 59.5955 40.9837 60.5034 40.4725C61.4074 39.9634 62.6445 39.684 64.0089 39.8068L64.1882 37.8148ZM70.4688 43.3021C70.5199 41.8124 69.7457 40.4936 68.6106 39.5487C67.4725 38.6014 65.9132 37.9701 64.1882 37.8148L64.0089 39.8068C65.3733 39.9296 66.5372 40.4251 67.3311 41.0859C68.1279 41.7492 68.4944 42.5198 68.4699 43.2335L70.4688 43.3021ZM69.5608 42.272L69.5587 42.2718L69.38 44.2638L69.382 44.264L69.5608 42.272ZM70.4634 43.4008L70.4671 43.3604L68.4757 43.1756L68.472 43.216L70.4634 43.4008ZM70.4539 43.5357C70.4595 43.4758 70.4637 43.416 70.4665 43.3562L68.4688 43.2606C68.4674 43.2905 68.4653 43.3206 68.4625 43.3507L70.4539 43.5357ZM70.4333 43.7138C70.4415 43.6548 70.4484 43.5954 70.4539 43.5357L68.4625 43.3507C68.4597 43.3808 68.4562 43.4107 68.4521 43.4403L70.4333 43.7138ZM70.4083 43.9944L70.4385 43.6695L68.447 43.4847L68.4169 43.8096L70.4083 43.9944ZM75.4816 43.4474L69.5028 42.9061L69.3224 44.8979L75.3012 45.4393L75.4816 43.4474ZM74.5894 42.0133L74.3948 44.3608L76.388 44.526L76.5825 42.1785L74.5894 42.0133ZM75.495 43.0919L75.5138 43.0933L75.6582 41.0985L75.6395 41.0972L75.495 43.0919ZM64.4241 34.4405C67.3994 34.6561 69.9916 35.6675 71.8075 37.0912C73.6276 38.5181 74.6005 40.2946 74.5674 42.076L76.5671 42.1131C76.615 39.5324 75.2023 37.2113 73.0415 35.5172C70.8765 33.8198 67.8927 32.6866 64.5686 32.4458L64.4241 34.4405Z" fill="#DFA52A"/>
<path fill-rule="evenodd" clip-rule="evenodd" d="M53.9434 45.0961C54.6399 45.1511 55.2961 43.89 55.4091 42.2794C55.522 40.6687 55.0489 39.3184 54.3524 39.2633C53.6558 39.2083 52.9996 40.4693 52.8867 42.08C52.7737 43.6907 53.2468 45.041 53.9434 45.0961ZM53.5995 48.3417C54.2078 48.3898 54.7376 47.9052 54.7829 47.2594C54.8281 46.6135 54.3717 46.051 53.7635 46.0029C53.1552 45.9549 52.6254 46.4394 52.5801 47.0853C52.5348 47.7311 52.9912 48.2936 53.5995 48.3417Z" fill="#FFFEDA"/>
<defs>
<filter id="filter0_f_23_1757" x="65.7969" y="59.1562" width="61.7656" height="81.4922" filterUnits="userSpaceOnUse" color-interpolation-filters="sRGB">
<feFlood flood-opacity="0" result="BackgroundImageFix"/>
<feBlend mode="normal" in="SourceGraphic" in2="BackgroundImageFix" result="shape"/>
<feGaussianBlur stdDeviation="0.5" result="effect1_foregroundBlur_23_1757"/>
</filter>
</defs>
</svg>
